# xmcd
#
# Track frame offsets:
#	150
#	4032
#	17187
#	31240
#	39222
#	59851
#	77782
#	93276
#	107222
#	119165
#	138576
#	154663
#	172075
#	184346
#	201709
#	216986
#	226322
#	242189
#	259688
#	279034
#	294386
#	308595
#
# Disc length: 4309 seconds
#
# Revision: 1
# Processed by: cddbd v1.5.2PL0 Copyright (c) Steve Scherf et al.
# Submitted via: audiograbber 1.83.01
#
DISCID=4210d316
DTITLE=Various Artist - Harbourtown Records Sampler CD
DYEAR=1900
DGENRE=
TTITLE0=Ja Helo - Frankie Armstrong
TTITLE1=No Going Back - Sisters Unlimited
TTITLE2=Old Joe Clarke - Urban Folk
TTITLE3=Colours - Dave Goulder
TTITLE4=Songbird - Pete Morton
TTITLE5=Skepper Schotish - House Band
TTITLE6=Servant of the Company - Brian Peters
TTITLE7=She Worries Me - Boat Band
TTITLE8=Can't Win 'em All - Jung and Parker
TTITLE9=Donohoe Downs - Caught on the Hop
TTITLE10=Ettrick - Janet Russell
TTITLE11=London Song - Frankie Armstrong
TTITLE12=As I Roved Out - Sara Grey
TTITLE13=Courage Love and Grace - Pete Morton
TTITLE14=Clair de Lune - Boat Band
TTITLE15=Skipton Ram - Brian Peters and Gordon Tyrrall
TTITLE16=Love Hurts - Urban Folk
TTITLE17=The Hornet - Stocai
TTITLE18=Kate Kelly . Barry McDonald and Marooan
TTITLE19=Rudi - K-PASSA
TTITLE20=Sur La Courtebleau - Boat Band
TTITLE21=Dick Turpin - Pete Morton
EXTD=
EXTT0=
EXTT1=
EXTT2=
EXTT3=
EXTT4=
EXTT5=
EXTT6=
EXTT7=
EXTT8=
EXTT9=
EXTT10=
EXTT11=
EXTT12=
EXTT13=
EXTT14=
EXTT15=
EXTT16=
EXTT17=
EXTT18=
EXTT19=
EXTT20=
EXTT21=
PLAYORDER=
